<svg xmlns="http://www.w3.org/2000/svg" width="600" height="492.151" viewBox="0 0 600 492.151"><path d="M299.821 49.897c-6.042 0-10.94 4.898-10.94 10.94v55.687c3.724-.108 7.441-.263 11.178-.263 3.578 0 7.137.153 10.702.25V60.838c0-6.042-4.898-10.94-10.94-10.94zm119.846 0c-6.042 0-10.94 4.898-10.94 10.94v70.865c7.372 2.152 14.653 4.584 21.88 7.169V60.837c0-6.042-4.898-10.94-10.94-10.94zM288.88 148.85v71.447c0 6.042 4.898 10.94 10.94 10.94s10.94-4.898 10.94-10.94v-71.433c-3.785-.1-7.569-.222-11.366-.222-3.512 0-7.01.12-10.514.208zm119.846 71.447c0 6.042 4.898 10.94 10.94 10.94s10.94-4.898 10.94-10.94V169.18c-7.208-2.329-14.52-4.4-21.88-6.342v57.46zm-239.691 0c0 6.042 4.898 10.94 10.94 10.94s10.94-4.898 10.94-10.94v-57.427c-7.357 1.957-14.67 4.042-21.88 6.391v51.036z" fill="#3fa2db"/><path d="M58.684 348.335H15.948v-34.7H0v88.914h15.948V362.75h42.736v39.799H74.5v-88.913H58.684v34.699zm37.002-34.7v14.416h31.256l-24.365 30.873c4.082-1.408 9.438-2.041 16.2-2.041 12.12 0 19.9 6.757 19.9 16.457 0 9.693-7.525 16.2-18.242 16.2-9.316 0-16.713-3.954-20.155-10.717l-12.759 7.013c5.484 11.23 17.858 18.242 33.17 18.242 10.078 0 18.114-2.93 24.238-8.798 6.25-5.867 9.31-13.27 9.31-22.324 0-7.275-2.426-13.655-7.27-19.138-4.85-5.483-10.717-8.292-17.73-8.677h-.127l25.254-31.505h-58.68zm146.838 34.7H199.79v-34.7h-15.945v88.914h15.945V362.75h42.735v39.799h15.817v-88.913h-15.817v34.699zm42.614-35.723c-5.1 0-9.182 3.954-9.182 9.06 0 5.1 4.082 9.054 9.182 9.054 4.978 0 9.06-3.954 9.06-9.054 0-5.106-4.082-9.06-9.06-9.06zm-7.653 89.937h15.306v-64.292h-15.306v64.292zm50.907-88.913H313.08v24.62h-8.292v13.905h8.292v50.388h15.312V352.16h13.903v-13.904h-13.903v-24.621zm53.075 23.085c-9.694 0-17.737 3.065-23.988 9.316-6.245 6.124-9.31 14.288-9.31 24.366v.64c0 10.077 3.065 18.242 9.31 24.365 6.251 5.995 14.544 9.054 24.621 9.054 9.573 0 17.48-2.17 23.732-6.508v-14.287c-5.362 4.978-13.014 7.403-23.092 7.403-11.35 0-18.882-6.508-19.387-16.713h49.242c.122-1.657.25-3.57.25-5.483 0-9.06-2.93-16.713-8.798-22.837-5.746-6.251-13.27-9.316-22.58-9.316zm-17.737 26.79c.256-3.826 2.041-7.012 5.49-9.693 3.443-2.681 7.525-4.082 12.247-4.082 4.466 0 8.164 1.4 11.223 4.082 3.065 2.68 4.594 5.995 4.594 9.694H363.73zm133.447-26.534c-10.334 0-17.353 3.705-21.051 11.23-3.193-7.525-9.188-11.23-17.986-11.23-8.165 0-14.672 4.21-17.353 10.462v-9.182H425.61v64.292h15.177v-36.996c0-8.67 5.362-14.921 12.503-14.921 7.275 0 11.478 5.483 11.478 14.287v37.63h15.184v-36.996c0-8.798 5.228-14.921 12.759-14.921 7.268 0 11.478 5.483 11.478 14.287v37.63h15.312V362.75c0-15.945-8.164-25.773-22.324-25.773zm87.512 1.28v9.31c-2.17-6.252-9.95-10.718-20.54-10.718-9.053 0-16.712 3.193-22.957 9.7-6.124 6.38-9.189 14.288-9.189 23.854 0 9.565 3.065 17.474 9.189 23.981 6.245 6.38 13.904 9.572 22.957 9.572 10.59 0 18.37-4.466 20.54-10.717v9.31H600v-64.292h-15.311zm-4.595 46.177c-3.698 3.699-8.413 5.612-13.904 5.612-5.483 0-9.95-1.913-13.647-5.612-3.57-3.698-5.356-8.42-5.356-14.031 0-5.612 1.785-10.334 5.356-14.032 3.698-3.699 8.164-5.612 13.647-5.612 5.49 0 10.206 1.913 13.904 5.612 3.833 3.698 5.746 8.42 5.746 14.032 0 5.611-1.913 10.333-5.746 14.031zM250.84 0h-21.88v122.858c7.243-1.352 14.546-2.44 21.88-3.377V0zm119.846 0h-21.881v119.42c7.333.93 14.636 2.01 21.88 3.35V0zm-21.881 281.135h21.88V155.74c61.735 10.163 125.93 35.254 179.733 74.961a3.054 3.054 0 0 0 4.43-.886l.013-.021a2.823 2.823 0 0 0-.521-3.549C410.753 95.57 190.342 94.49 45.718 226.444a3.013 3.013 0 0 0-.37 4.047 3.048 3.048 0 0 0 4.157.494c51.655-38.262 111.969-64.133 179.453-75.238v125.388h21.88V153.11c33.347-3.702 66.27-3.443 97.966.117v127.908z" fill="#384050"/><path d="M179.794 49.897c-6.042 0-10.94 4.898-10.94 10.94v78.215a401.436 401.436 0 0 1 18.76-6.186c1.096-.332 2.022-.613 3.12-.936V60.837c0-6.042-4.897-10.94-10.94-10.94zm132.175 416.12c-9.448-2.021-10.2-4.166-10.2-6.875 0-3.158 3.085-5.367 7.5-5.367 4.084 0 7.614 1.333 11.118 4.196l1.055.863 4.308-5.713-.996-.799c-4.692-3.765-9.29-5.371-15.366-5.371-8.645 0-14.917 5.303-14.917 12.72 0 8.29 5.97 11.286 14.938 13.234 9.008 1.902 9.726 4.017 9.726 6.7 0 3.423-3.18 5.722-7.914 5.722-5.123 0-8.982-1.598-13.315-5.516l-1.008-.91-4.594 5.443.949.85c5.303 4.748 10.956 6.957 17.793 6.957 9.093 0 15.443-5.354 15.443-13.14 0-8.7-7.756-11.515-14.52-12.994zm61.502-18.48l-13.375 19.672-13.267-19.673h-8.871l18.4 26.741v17.289h7.353V474.22l18.396-26.685h-8.636zm-155.578 44.029h7.294v-44.03h-7.294v44.03zm45.03-25.549c-9.448-2.025-10.2-4.166-10.2-6.875 0-3.158 3.085-5.367 7.499-5.367 4.085 0 7.615 1.333 11.119 4.196l1.055.863 4.312-5.713-.996-.799c-4.696-3.765-9.294-5.371-15.366-5.371-8.644 0-14.917 5.303-14.917 12.72 0 8.29 5.97 11.286 14.934 13.234 9.012 1.902 9.73 4.017 9.73 6.7 0 3.423-3.184 5.722-7.918 5.722-5.124 0-8.982-1.598-13.315-5.516l-1.009-.91-4.593 5.443.949.85c5.302 4.748 10.956 6.957 17.793 6.957 9.093 0 15.442-5.354 15.442-13.14 0-8.7-7.755-11.515-14.52-12.994z" fill="#ec6608"/></svg>